# xmcd
#
# Track frame offsets:
# 150
# 20030
# 36165
# 53250
# 78690
# 98955
# 115680
# 135365
# 153475
# 169505
# 189120
# 205320
#
# Disc length: 3001 seconds
#
#
# Revision: 1
# Processed by: cddbd v1.5.2PL0 Copyright (c) Steve Scherf et al.
# Submitted via: FreeRIP 2.942 
#
DISCID=8f0bb70c
DTITLE=Ana Belén - Mírame
DYEAR=1997
DGENRE=Pop
TTITLE0=Ana Belén and Ketama - Tú me amas (sabor locura)
TTITLE1=Ana Belén and Antonio Banderas - No sé por que te quiero
TTITLE2=Ana Belén - Luna de plata
TTITLE3=Ana Belén and Lucio Dalla - Caruso
TTITLE4=Ana Belén - Amigas
TTITLE5=Ana Belén - Gente sola
TTITLE6=Ana Belén and Fito Paez - Un vestido y un amor
TTITLE7=Ana Belén and Chico Buarque - Mar y luna
TTITLE8=Ana Belén - Entre dos amores
TTITLE9=Ana Belén and Chavela Vargas - Amanecí en tus brazos
TTITLE10=Ana Belén - Era de amar
TTITLE11=Ana Belén - Quemarse los pies
EXTD=
EXTT0=
EXTT1=
EXTT2=
EXTT3=
EXTT4=
EXTT5=
EXTT6=
EXTT7=
EXTT8=
EXTT9=
EXTT10=
EXTT11=
PLAYORDER=
